<svg width="140.8" height="109.2" viewBox="0 0 140.8 109.2" xmlns="http://www.w3.org/2000/svg"><g id="svgGroup" stroke-linecap="round" fill-rule="evenodd" font-size="9pt" stroke="#000" stroke-width="0.25mm" fill="#000" style="stroke:#000;stroke-width:0.25mm;fill:#000"><path d="M 103.3 9.4 L 99.5 7.5 L 85.3 35.3 L 45.3 35.3 L 31.1 7.5 L 27.3 9.4 L 65.2 83.5 L 65.4 83.5 L 103.3 9.4 Z M 0 109.2 L 4.2 109.2 L 4.2 1.7 L 0 1.7 L 0 109.2 Z M 83.2 39.5 L 65.4 74.5 L 65.2 74.5 L 47.4 39.5 L 83.2 39.5 Z M 130.9 0 L 130.8 0 A 10.034 10.034 0 0 0 121.337 7.448 A 12.474 12.474 0 0 0 120.8 11.1 A 12.708 12.708 0 0 0 122.086 16.815 A 9.608 9.608 0 0 0 130.8 22.3 A 9.808 9.808 0 0 0 140.253 14.946 A 13.358 13.358 0 0 0 140.8 11.1 A 11.882 11.882 0 0 0 138.114 3.492 A 9.361 9.361 0 0 0 130.9 0 Z M 130.9 19.2 L 130.8 19.2 A 6.515 6.515 0 0 1 125.13 15.692 C 124.418 14.423 124 12.863 124 11.1 A 8.946 8.946 0 0 1 125.557 5.986 A 6.389 6.389 0 0 1 130.8 3.1 A 6.663 6.663 0 0 1 136.583 6.922 A 8.999 8.999 0 0 1 137.6 11.1 A 9.487 9.487 0 0 1 136.672 15.273 C 135.87 16.912 134.604 18.153 133.092 18.769 A 5.786 5.786 0 0 1 130.9 19.2 Z" vector-effect="non-scaling-stroke"/></g></svg>